<svg version="1.2" xmlns="http://www.w3.org/2000/svg" viewBox="0 0 224 238" width="224" height="238">
	<style>
		.s0 { fill: #448834 } 
		.s1 { fill: #f5ce31 } 
	</style>
	<g>
		<path class="s0" d="m104.48 233.98c-1.52-1.68-1.95-4.58-2.56-17.26-0.83-17.21-3-25.36-9.62-36.22-11.21-18.4-24.38-30.47-47.1-43.2-6.1-3.42-10.25-3.77-5.22-0.44 11.04 7.29 31.26 26.99 40.85 39.8 5.59 7.47 13.63 22.89 14.7 28.2l0.68 3.35-4.36-0.72c-2.39-0.4-7.98-1.77-12.42-3.05-43.75-12.61-70.89-47.68-74.81-96.69-0.63-7.78-1.19-7.47 9.56-5.21 39.56 8.3 65.2 25.38 78.81 52.46 3.7 7.37 8.67 21.71 13.01 37.5 1.21 4.4 2.53 8.35 2.93 8.79 0.41 0.43 1.49-3.17 2.41-8 2.15-11.31 8.66-24.54 16.83-34.16 6.52-7.69 17.14-16.12 30.82-24.45 16.43-10.01 21.98-18.18 22-32.37 0.01-4.5-0.69-11.23-1.56-14.94-0.86-3.71-1.37-7.5-1.13-8.41 0.76-2.91 19.92-31.96 21.08-31.95 1.3 0 3.43 3.45 8.83 14.31 12.83 25.76 14.2 56.13 3.74 83.18-11.85 30.65-36.47 53.08-68.45 62.35-8.31 2.41-21.28 4.71-22.08 3.91-0.7-0.7 2.85-7.78 6.9-13.76 5.97-8.8 21.08-25.71 35.52-39.73 8.07-7.83 14.17-14.24 13.57-14.25-2.76-0.05-22.15 15.98-33.99 28.09-14.02 14.34-20.81 23.14-25.1 32.49-2.19 4.81-2.79 7.87-3.29 17.07-0.49 8.95-0.99 11.62-2.48 13.27-2.36 2.62-5.72 2.63-8.07 0.04z"/>
	</g>
	<g>
		<path class="s1" d="m30.35 102.84c-11.49-3.75-15.26-5.4-15.64-6.83-0.76-2.92 2.73-18.68 6.02-27.14 14.93-38.41 49.03-63.15 90.27-65.49 28.63-1.62 62.93 12.5 80.61 33.2 5.64 6.6 6.03 5.29-6.66 22.82l-9.29 12.84-8.08-8.58c-17.03-18.09-34.5-25.65-56.39-24.38-33.18 1.92-55.95 24.44-61.23 60.58-0.95 6.47-1.53 8.12-2.83 8.03-0.89-0.05-8.45-2.33-16.78-5.05z"/>
	</g>
	<g>
		<path class="s0" d="m102.51 156c0.98-4.74 6.92-25.1 9.46-32.44 1.41-4.07 1.73-6.26 1.02-6.97-0.63-0.63-5.7-0.91-13.01-0.72-6.59 0.17-11.98 0.02-11.98-0.33 0-0.94 47.19-56.68 47.62-56.25 0.2 0.2-2.11 8.2-5.13 17.79-3.02 9.58-5.28 17.97-5.03 18.64 0.3 0.82 3.86 1.3 11.01 1.5l10.57 0.28-21.62 30c-11.89 16.5-22.07 30.45-22.63 31q-1 1.01-0.28-2.5z"/>
	</g>
</svg>